<svg width="455" height="68" viewBox="0 0 455 68" fill="none" xmlns="http://www.w3.org/2000/svg">
<circle cx="33.7209" cy="34.0581" r="33.7209" fill="#9208D3"/>
<g clip-path="url(#clip0_408_5135)">
<path d="M34.1838 24.9837C27.5145 24.9837 22.0885 30.4096 22.0885 37.0791C22.0885 43.7485 27.5145 49.1744 34.1838 49.1744C40.8532 49.1744 46.2792 43.7484 46.2792 37.0791C46.2792 30.4097 40.8532 24.9837 34.1838 24.9837ZM34.1838 47.403C28.4912 47.403 23.8599 42.7716 23.8599 37.0791C23.8599 31.3865 28.4912 26.7552 34.1838 26.7552C39.8764 26.7552 44.5077 31.3865 44.5077 37.0791C44.5077 42.7716 39.8765 47.403 34.1838 47.403Z" fill="white"/>
<path d="M39.466 39.3283C39.0947 39.0099 38.5355 39.0527 38.2171 39.424C37.2057 40.6031 35.7356 41.2794 34.1838 41.2794C32.6321 41.2794 31.162 40.6031 30.1506 39.4241C29.8321 39.0528 29.273 39.01 28.9017 39.3285C28.5304 39.647 28.4876 40.2062 28.8061 40.5774C30.1544 42.1492 32.1146 43.0508 34.1839 43.0508C36.2532 43.0508 38.2134 42.1492 39.5617 40.5773C39.8801 40.206 39.8373 39.6469 39.466 39.3283Z" fill="white"/>
<path d="M29.2667 35.686C29.7559 35.686 30.1524 35.2894 30.1524 34.8003C30.1524 34.5163 30.3835 34.2852 30.6674 34.2852C30.9514 34.2852 31.1825 34.5163 31.1825 34.8003C31.1825 35.2894 31.579 35.686 32.0682 35.686C32.5573 35.686 32.9539 35.2894 32.9539 34.8003C32.9539 33.5395 31.9282 32.5138 30.6674 32.5138C29.4067 32.5138 28.381 33.5395 28.381 34.8003C28.381 35.2895 28.7775 35.686 29.2667 35.686Z" fill="white"/>
<path d="M37.7002 32.5138C36.4395 32.5138 35.4138 33.5395 35.4138 34.8003C35.4138 35.2894 35.8103 35.686 36.2995 35.686C36.7886 35.686 37.1852 35.2894 37.1852 34.8003C37.1852 34.5163 37.4162 34.2853 37.7002 34.2853C37.9842 34.2853 38.2152 34.5163 38.2152 34.8003C38.2152 35.2894 38.6118 35.686 39.1009 35.686C39.5901 35.686 39.9867 35.2894 39.9867 34.8003C39.9867 33.5395 38.9609 32.5138 37.7002 32.5138Z" fill="white"/>
<path d="M41.481 23.9173H42.7731C43.2623 23.9173 43.6589 23.5207 43.6589 23.0316C43.6589 22.5424 43.2623 22.1459 42.7731 22.1459H41.481C40.9918 22.1459 40.5953 22.5424 40.5953 23.0316C40.5953 23.5207 40.9918 23.9173 41.481 23.9173Z" fill="white"/>
<path d="M44.7163 27.1212C45.2054 27.1212 45.602 26.7247 45.602 26.2355V24.9434C45.602 24.4542 45.2054 24.0577 44.7163 24.0577C44.2271 24.0577 43.8306 24.4542 43.8306 24.9434V26.2355C43.8306 26.7247 44.2271 27.1212 44.7163 27.1212Z" fill="white"/>
<path d="M47.9516 22.1459H46.6594C46.1702 22.1459 45.7737 22.5424 45.7737 23.0316C45.7737 23.5207 46.1702 23.9173 46.6594 23.9173H47.9516C48.4407 23.9173 48.8373 23.5207 48.8373 23.0316C48.8373 22.5424 48.4407 22.1459 47.9516 22.1459Z" fill="white"/>
<path d="M44.7163 22.0054C45.2054 22.0054 45.602 21.6089 45.602 21.1197V19.8276C45.602 19.3384 45.2054 18.9419 44.7163 18.9419C44.2271 18.9419 43.8306 19.3384 43.8306 19.8276V21.1197C43.8306 21.6089 44.2271 22.0054 44.7163 22.0054Z" fill="white"/>
<path d="M20.522 23.3268H19.4904C19.0012 23.3268 18.6047 23.7234 18.6047 24.2125C18.6047 24.7017 19.0012 25.0983 19.4904 25.0983H20.522C21.0111 25.0983 21.4077 24.7017 21.4077 24.2125C21.4077 23.7234 21.0111 23.3268 20.522 23.3268Z" fill="white"/>
<path d="M23.2542 27.0656V26.0341C23.2542 25.5449 22.8576 25.1483 22.3684 25.1483C21.8793 25.1483 21.4827 25.5449 21.4827 26.0341V27.0656C21.4827 27.5548 21.8793 27.9513 22.3684 27.9513C22.8576 27.9513 23.2542 27.5548 23.2542 27.0656Z" fill="white"/>
<path d="M24.215 25.0983H25.2466C25.7357 25.0983 26.1323 24.7017 26.1323 24.2125C26.1323 23.7234 25.7357 23.3268 25.2466 23.3268H24.215C23.7259 23.3268 23.3293 23.7234 23.3293 24.2125C23.3293 24.7017 23.7259 25.0983 24.215 25.0983Z" fill="white"/>
<path d="M22.3684 23.2767C22.8576 23.2767 23.2542 22.8801 23.2542 22.391V21.3594C23.2542 20.8702 22.8576 20.4737 22.3684 20.4737C21.8793 20.4737 21.4827 20.8702 21.4827 21.3594V22.391C21.4827 22.8801 21.8793 23.2767 22.3684 23.2767Z" fill="white"/>
</g>
<path d="M100.248 23.6814H104.893V25.5H97.9942V11.7616H100.248V23.6814ZM111.502 25.6779C110.474 25.6779 109.545 25.4473 108.715 24.986C107.885 24.5116 107.232 23.8527 106.758 23.0093C106.283 22.1527 106.046 21.1643 106.046 20.0442C106.046 18.9372 106.29 17.9554 106.778 17.0988C107.265 16.2422 107.931 15.5833 108.774 15.1221C109.617 14.6609 110.56 14.4302 111.601 14.4302C112.642 14.4302 113.584 14.6609 114.428 15.1221C115.271 15.5833 115.936 16.2422 116.424 17.0988C116.912 17.9554 117.155 18.9372 117.155 20.0442C117.155 21.1512 116.905 22.1329 116.404 22.9895C115.904 23.8461 115.218 24.5116 114.349 24.986C113.492 25.4473 112.543 25.6779 111.502 25.6779ZM111.502 23.7209C112.082 23.7209 112.622 23.5826 113.123 23.3058C113.637 23.0291 114.052 22.614 114.368 22.0605C114.685 21.507 114.843 20.8349 114.843 20.0442C114.843 19.2535 114.691 18.588 114.388 18.0477C114.085 17.4942 113.683 17.0791 113.182 16.8023C112.681 16.5256 112.141 16.3872 111.561 16.3872C110.981 16.3872 110.441 16.5256 109.94 16.8023C109.453 17.0791 109.064 17.4942 108.774 18.0477C108.484 18.588 108.339 19.2535 108.339 20.0442C108.339 21.2171 108.636 22.1264 109.229 22.7721C109.835 23.4047 110.593 23.7209 111.502 23.7209ZM121.637 16.1895C121.966 15.636 122.401 15.2078 122.941 14.9047C123.495 14.5884 124.147 14.4302 124.898 14.4302V16.7628H124.325C123.442 16.7628 122.77 16.9868 122.309 17.4349C121.861 17.8829 121.637 18.6605 121.637 19.7674V25.5H119.383V14.6081H121.637V16.1895ZM136.952 19.7872C136.952 20.1957 136.926 20.5647 136.873 20.8942H128.551C128.617 21.764 128.94 22.4624 129.52 22.9895C130.1 23.5167 130.811 23.7802 131.655 23.7802C132.867 23.7802 133.724 23.2729 134.224 22.2581H136.656C136.326 23.2597 135.727 24.0833 134.857 24.7291C134 25.3616 132.933 25.6779 131.655 25.6779C130.614 25.6779 129.678 25.4473 128.848 24.986C128.031 24.5116 127.385 23.8527 126.91 23.0093C126.449 22.1527 126.219 21.1643 126.219 20.0442C126.219 18.924 126.443 17.9422 126.891 17.0988C127.352 16.2422 127.991 15.5833 128.808 15.1221C129.638 14.6609 130.587 14.4302 131.655 14.4302C132.682 14.4302 133.598 14.6543 134.402 15.1023C135.206 15.5504 135.832 16.1829 136.28 17C136.728 17.8039 136.952 18.7329 136.952 19.7872ZM134.6 19.0756C134.587 18.2453 134.29 17.5798 133.71 17.0791C133.131 16.5783 132.412 16.3279 131.556 16.3279C130.778 16.3279 130.113 16.5783 129.559 17.0791C129.006 17.5667 128.676 18.2322 128.571 19.0756H134.6ZM152.355 14.4302C153.211 14.4302 153.976 14.6081 154.648 14.964C155.333 15.3198 155.867 15.8469 156.249 16.5453C156.644 17.2438 156.842 18.0872 156.842 19.0756V25.5H154.608V19.4116C154.608 18.4364 154.364 17.6919 153.877 17.1779C153.389 16.6508 152.724 16.3872 151.88 16.3872C151.037 16.3872 150.365 16.6508 149.864 17.1779C149.377 17.6919 149.133 18.4364 149.133 19.4116V25.5H146.899V19.4116C146.899 18.4364 146.655 17.6919 146.168 17.1779C145.68 16.6508 145.014 16.3872 144.171 16.3872C143.328 16.3872 142.656 16.6508 142.155 17.1779C141.667 17.6919 141.423 18.4364 141.423 19.4116V25.5H139.17V14.6081H141.423V15.8535C141.792 15.4054 142.26 15.0562 142.827 14.8058C143.394 14.5554 144 14.4302 144.646 14.4302C145.515 14.4302 146.293 14.6147 146.978 14.9837C147.663 15.3527 148.19 15.8864 148.559 16.5849C148.889 15.926 149.403 15.4054 150.101 15.0233C150.8 14.6279 151.551 14.4302 152.355 14.4302ZM167.098 11.7616V25.5H164.844V11.7616H167.098ZM172.31 16.2093C172.692 15.7085 173.213 15.2868 173.872 14.9442C174.531 14.6015 175.275 14.4302 176.105 14.4302C177.054 14.4302 177.917 14.6674 178.695 15.1419C179.486 15.6031 180.105 16.2554 180.553 17.0988C181.001 17.9422 181.225 18.9109 181.225 20.0047C181.225 21.0984 181.001 22.0802 180.553 22.95C180.105 23.8066 179.486 24.4787 178.695 24.9663C177.917 25.4407 177.054 25.6779 176.105 25.6779C175.275 25.6779 174.537 25.5132 173.891 25.1837C173.246 24.8411 172.719 24.4194 172.31 23.9186V30.6791H170.057V14.6081H172.31V16.2093ZM178.932 20.0047C178.932 19.2535 178.774 18.6078 178.458 18.0674C178.155 17.514 177.746 17.0988 177.232 16.8221C176.731 16.5322 176.191 16.3872 175.611 16.3872C175.045 16.3872 174.504 16.5322 173.99 16.8221C173.489 17.112 173.081 17.5337 172.765 18.0872C172.462 18.6407 172.31 19.293 172.31 20.0442C172.31 20.7953 172.462 21.4543 172.765 22.0209C173.081 22.5744 173.489 22.9961 173.99 23.286C174.504 23.576 175.045 23.7209 175.611 23.7209C176.191 23.7209 176.731 23.576 177.232 23.286C177.746 22.9829 178.155 22.5481 178.458 21.9814C178.774 21.4147 178.932 20.7558 178.932 20.0047ZM187.407 25.6779C186.551 25.6779 185.78 25.5264 185.094 25.2233C184.422 24.907 183.889 24.4853 183.493 23.9581C183.098 23.4178 182.887 22.8182 182.861 22.1593H185.193C185.233 22.6205 185.45 23.0093 185.845 23.3256C186.254 23.6287 186.761 23.7802 187.368 23.7802C188 23.7802 188.488 23.6616 188.83 23.4244C189.186 23.174 189.364 22.8578 189.364 22.4756C189.364 22.0671 189.166 21.764 188.771 21.5663C188.389 21.3686 187.776 21.1512 186.933 20.914C186.116 20.6899 185.45 20.4725 184.936 20.2616C184.422 20.0508 183.974 19.7279 183.592 19.293C183.223 18.8581 183.039 18.2849 183.039 17.5733C183.039 16.9934 183.21 16.4663 183.552 15.9919C183.895 15.5043 184.383 15.1221 185.015 14.8453C185.661 14.5686 186.399 14.4302 187.229 14.4302C188.468 14.4302 189.463 14.7465 190.214 15.3791C190.978 15.9984 191.387 16.8484 191.44 17.9291H189.186C189.147 17.4415 188.949 17.0527 188.593 16.7628C188.237 16.4729 187.756 16.3279 187.15 16.3279C186.557 16.3279 186.102 16.4399 185.786 16.664C185.47 16.888 185.312 17.1845 185.312 17.5535C185.312 17.8434 185.417 18.0872 185.628 18.2849C185.839 18.4826 186.096 18.6407 186.399 18.7593C186.702 18.8647 187.15 19.0031 187.743 19.1744C188.534 19.3853 189.18 19.6027 189.68 19.8267C190.194 20.0376 190.636 20.3539 191.005 20.7756C191.374 21.1973 191.565 21.7574 191.578 22.4558C191.578 23.0752 191.407 23.6287 191.064 24.1163C190.721 24.6039 190.234 24.986 189.601 25.2628C188.982 25.5395 188.251 25.6779 187.407 25.6779ZM203.877 14.6081V25.5H201.623V24.2151C201.268 24.6632 200.8 25.019 200.22 25.2826C199.653 25.5329 199.047 25.6581 198.401 25.6581C197.545 25.6581 196.774 25.4802 196.089 25.1244C195.416 24.7686 194.883 24.2415 194.487 23.543C194.105 22.8446 193.914 22.0012 193.914 21.0128V14.6081H196.148V20.6767C196.148 21.6519 196.392 22.4031 196.879 22.9302C197.367 23.4442 198.032 23.7012 198.876 23.7012C199.719 23.7012 200.385 23.4442 200.872 22.9302C201.373 22.4031 201.623 21.6519 201.623 20.6767V14.6081H203.877ZM220.035 14.4302C220.892 14.4302 221.656 14.6081 222.328 14.964C223.013 15.3198 223.547 15.8469 223.929 16.5453C224.325 17.2438 224.522 18.0872 224.522 19.0756V25.5H222.289V19.4116C222.289 18.4364 222.045 17.6919 221.557 17.1779C221.07 16.6508 220.404 16.3872 219.561 16.3872C218.717 16.3872 218.045 16.6508 217.544 17.1779C217.057 17.6919 216.813 18.4364 216.813 19.4116V25.5H214.579V19.4116C214.579 18.4364 214.336 17.6919 213.848 17.1779C213.36 16.6508 212.695 16.3872 211.851 16.3872C211.008 16.3872 210.336 16.6508 209.835 17.1779C209.348 17.6919 209.104 18.4364 209.104 19.4116V25.5H206.85V14.6081H209.104V15.8535C209.473 15.4054 209.941 15.0562 210.507 14.8058C211.074 14.5554 211.68 14.4302 212.326 14.4302C213.196 14.4302 213.973 14.6147 214.658 14.9837C215.344 15.3527 215.871 15.8864 216.24 16.5849C216.569 15.926 217.083 15.4054 217.782 15.0233C218.48 14.6279 219.231 14.4302 220.035 14.4302ZM233.671 13.1651C233.263 13.1651 232.92 13.0267 232.643 12.75C232.367 12.4733 232.228 12.1306 232.228 11.7221C232.228 11.3136 232.367 10.9709 232.643 10.6942C232.92 10.4174 233.263 10.2791 233.671 10.2791C234.067 10.2791 234.403 10.4174 234.679 10.6942C234.956 10.9709 235.095 11.3136 235.095 11.7221C235.095 12.1306 234.956 12.4733 234.679 12.75C234.403 13.0267 234.067 13.1651 233.671 13.1651ZM234.778 14.6081V25.5H232.525V14.6081H234.778ZM241.69 25.6779C240.834 25.6779 240.063 25.5264 239.378 25.2233C238.705 24.907 238.172 24.4853 237.776 23.9581C237.381 23.4178 237.17 22.8182 237.144 22.1593H239.476C239.516 22.6205 239.733 23.0093 240.129 23.3256C240.537 23.6287 241.045 23.7802 241.651 23.7802C242.283 23.7802 242.771 23.6616 243.114 23.4244C243.469 23.174 243.647 22.8578 243.647 22.4756C243.647 22.0671 243.45 21.764 243.054 21.5663C242.672 21.3686 242.059 21.1512 241.216 20.914C240.399 20.6899 239.733 20.4725 239.219 20.2616C238.705 20.0508 238.257 19.7279 237.875 19.293C237.506 18.8581 237.322 18.2849 237.322 17.5733C237.322 16.9934 237.493 16.4663 237.836 15.9919C238.178 15.5043 238.666 15.1221 239.299 14.8453C239.944 14.5686 240.682 14.4302 241.512 14.4302C242.751 14.4302 243.746 14.7465 244.497 15.3791C245.262 15.9984 245.67 16.8484 245.723 17.9291H243.469C243.43 17.4415 243.232 17.0527 242.876 16.7628C242.521 16.4729 242.04 16.3279 241.433 16.3279C240.84 16.3279 240.386 16.4399 240.069 16.664C239.753 16.888 239.595 17.1845 239.595 17.5535C239.595 17.8434 239.7 18.0872 239.911 18.2849C240.122 18.4826 240.379 18.6407 240.682 18.7593C240.985 18.8647 241.433 19.0031 242.026 19.1744C242.817 19.3853 243.463 19.6027 243.964 19.8267C244.478 20.0376 244.919 20.3539 245.288 20.7756C245.657 21.1973 245.848 21.7574 245.861 22.4558C245.861 23.0752 245.69 23.6287 245.347 24.1163C245.005 24.6039 244.517 24.986 243.885 25.2628C243.265 25.5395 242.534 25.6779 241.69 25.6779ZM257.385 25.6779C256.528 25.6779 255.757 25.5264 255.072 25.2233C254.4 24.907 253.866 24.4853 253.471 23.9581C253.075 23.4178 252.864 22.8182 252.838 22.1593H255.171C255.21 22.6205 255.428 23.0093 255.823 23.3256C256.232 23.6287 256.739 23.7802 257.345 23.7802C257.978 23.7802 258.465 23.6616 258.808 23.4244C259.164 23.174 259.342 22.8578 259.342 22.4756C259.342 22.0671 259.144 21.764 258.749 21.5663C258.366 21.3686 257.754 21.1512 256.91 20.914C256.093 20.6899 255.428 20.4725 254.914 20.2616C254.4 20.0508 253.952 19.7279 253.57 19.293C253.201 18.8581 253.016 18.2849 253.016 17.5733C253.016 16.9934 253.187 16.4663 253.53 15.9919C253.873 15.5043 254.36 15.1221 254.993 14.8453C255.639 14.5686 256.377 14.4302 257.207 14.4302C258.445 14.4302 259.44 14.7465 260.192 15.3791C260.956 15.9984 261.364 16.8484 261.417 17.9291H259.164C259.124 17.4415 258.927 17.0527 258.571 16.7628C258.215 16.4729 257.734 16.3279 257.128 16.3279C256.535 16.3279 256.08 16.4399 255.764 16.664C255.447 16.888 255.289 17.1845 255.289 17.5535C255.289 17.8434 255.395 18.0872 255.606 18.2849C255.816 18.4826 256.073 18.6407 256.377 18.7593C256.68 18.8647 257.128 19.0031 257.721 19.1744C258.511 19.3853 259.157 19.6027 259.658 19.8267C260.172 20.0376 260.613 20.3539 260.982 20.7756C261.351 21.1973 261.542 21.7574 261.556 22.4558C261.556 23.0752 261.384 23.6287 261.042 24.1163C260.699 24.6039 260.211 24.986 259.579 25.2628C258.959 25.5395 258.228 25.6779 257.385 25.6779ZM265.137 13.1651C264.728 13.1651 264.386 13.0267 264.109 12.75C263.832 12.4733 263.694 12.1306 263.694 11.7221C263.694 11.3136 263.832 10.9709 264.109 10.6942C264.386 10.4174 264.728 10.2791 265.137 10.2791C265.532 10.2791 265.868 10.4174 266.145 10.6942C266.422 10.9709 266.56 11.3136 266.56 11.7221C266.56 12.1306 266.422 12.4733 266.145 12.75C265.868 13.0267 265.532 13.1651 265.137 13.1651ZM266.244 14.6081V25.5H263.991V14.6081H266.244ZM282.388 14.4302C283.244 14.4302 284.008 14.6081 284.681 14.964C285.366 15.3198 285.9 15.8469 286.282 16.5453C286.677 17.2438 286.875 18.0872 286.875 19.0756V25.5H284.641V19.4116C284.641 18.4364 284.397 17.6919 283.91 17.1779C283.422 16.6508 282.757 16.3872 281.913 16.3872C281.07 16.3872 280.398 16.6508 279.897 17.1779C279.409 17.6919 279.165 18.4364 279.165 19.4116V25.5H276.932V19.4116C276.932 18.4364 276.688 17.6919 276.2 17.1779C275.713 16.6508 275.047 16.3872 274.204 16.3872C273.36 16.3872 272.688 16.6508 272.188 17.1779C271.7 17.6919 271.456 18.4364 271.456 19.4116V25.5H269.203V14.6081H271.456V15.8535C271.825 15.4054 272.293 15.0562 272.86 14.8058C273.426 14.5554 274.032 14.4302 274.678 14.4302C275.548 14.4302 276.326 14.6147 277.011 14.9837C277.696 15.3527 278.223 15.8864 278.592 16.5849C278.922 15.926 279.436 15.4054 280.134 15.0233C280.832 14.6279 281.584 14.4302 282.388 14.4302ZM291.996 16.2093C292.378 15.7085 292.898 15.2868 293.557 14.9442C294.216 14.6015 294.961 14.4302 295.791 14.4302C296.74 14.4302 297.603 14.6674 298.381 15.1419C299.171 15.6031 299.791 16.2554 300.239 17.0988C300.687 17.9422 300.911 18.9109 300.911 20.0047C300.911 21.0984 300.687 22.0802 300.239 22.95C299.791 23.8066 299.171 24.4787 298.381 24.9663C297.603 25.4407 296.74 25.6779 295.791 25.6779C294.961 25.6779 294.223 25.5132 293.577 25.1837C292.931 24.8411 292.404 24.4194 291.996 23.9186V30.6791H289.742V14.6081H291.996V16.2093ZM298.618 20.0047C298.618 19.2535 298.46 18.6078 298.143 18.0674C297.84 17.514 297.432 17.0988 296.918 16.8221C296.417 16.5322 295.877 16.3872 295.297 16.3872C294.73 16.3872 294.19 16.5322 293.676 16.8221C293.175 17.112 292.767 17.5337 292.45 18.0872C292.147 18.6407 291.996 19.293 291.996 20.0442C291.996 20.7953 292.147 21.4543 292.45 22.0209C292.767 22.5744 293.175 22.9961 293.676 23.286C294.19 23.576 294.73 23.7209 295.297 23.7209C295.877 23.7209 296.417 23.576 296.918 23.286C297.432 22.9829 297.84 22.5481 298.143 21.9814C298.46 21.4147 298.618 20.7558 298.618 20.0047ZM305.393 10.8721V25.5H303.139V10.8721H305.393ZM318.156 14.6081L311.475 30.6198H309.142L311.356 25.3221L307.067 14.6081H309.577L312.641 22.9105L315.824 14.6081H318.156ZM324.24 20.0047C324.24 18.9109 324.464 17.9422 324.913 17.0988C325.374 16.2554 325.993 15.6031 326.771 15.1419C327.561 14.6674 328.438 14.4302 329.4 14.4302C330.111 14.4302 330.81 14.5884 331.495 14.9047C332.194 15.2078 332.747 15.6163 333.156 16.1302V10.8721H335.429V25.5H333.156V23.8593C332.787 24.3864 332.273 24.8213 331.614 25.164C330.968 25.5066 330.223 25.6779 329.38 25.6779C328.431 25.6779 327.561 25.4407 326.771 24.9663C325.993 24.4787 325.374 23.8066 324.913 22.95C324.464 22.0802 324.24 21.0984 324.24 20.0047ZM333.156 20.0442C333.156 19.293 332.997 18.6407 332.681 18.0872C332.378 17.5337 331.976 17.112 331.475 16.8221C330.975 16.5322 330.434 16.3872 329.854 16.3872C329.275 16.3872 328.734 16.5322 328.233 16.8221C327.733 17.0988 327.324 17.514 327.008 18.0674C326.705 18.6078 326.553 19.2535 326.553 20.0047C326.553 20.7558 326.705 21.4147 327.008 21.9814C327.324 22.5481 327.733 22.9829 328.233 23.286C328.747 23.576 329.288 23.7209 329.854 23.7209C330.434 23.7209 330.975 23.576 331.475 23.286C331.976 22.9961 332.378 22.5744 332.681 22.0209C332.997 21.4543 333.156 20.7953 333.156 20.0442ZM348.253 14.6081V25.5H345.999V24.2151C345.643 24.6632 345.176 25.019 344.596 25.2826C344.029 25.5329 343.423 25.6581 342.777 25.6581C341.92 25.6581 341.15 25.4802 340.464 25.1244C339.792 24.7686 339.258 24.2415 338.863 23.543C338.481 22.8446 338.29 22.0012 338.29 21.0128V14.6081H340.524V20.6767C340.524 21.6519 340.767 22.4031 341.255 22.9302C341.743 23.4442 342.408 23.7012 343.251 23.7012C344.095 23.7012 344.76 23.4442 345.248 22.9302C345.749 22.4031 345.999 21.6519 345.999 20.6767V14.6081H348.253ZM364.411 14.4302C365.267 14.4302 366.032 14.6081 366.704 14.964C367.389 15.3198 367.923 15.8469 368.305 16.5453C368.7 17.2438 368.898 18.0872 368.898 19.0756V25.5H366.664V19.4116C366.664 18.4364 366.421 17.6919 365.933 17.1779C365.445 16.6508 364.78 16.3872 363.936 16.3872C363.093 16.3872 362.421 16.6508 361.92 17.1779C361.433 17.6919 361.189 18.4364 361.189 19.4116V25.5H358.955V19.4116C358.955 18.4364 358.711 17.6919 358.224 17.1779C357.736 16.6508 357.071 16.3872 356.227 16.3872C355.384 16.3872 354.712 16.6508 354.211 17.1779C353.723 17.6919 353.479 18.4364 353.479 19.4116V25.5H351.226V14.6081H353.479V15.8535C353.848 15.4054 354.316 15.0562 354.883 14.8058C355.45 14.5554 356.056 14.4302 356.702 14.4302C357.571 14.4302 358.349 14.6147 359.034 14.9837C359.719 15.3527 360.246 15.8864 360.615 16.5849C360.945 15.926 361.459 15.4054 362.157 15.0233C362.856 14.6279 363.607 14.4302 364.411 14.4302ZM384.95 14.4302C385.807 14.4302 386.571 14.6081 387.243 14.964C387.929 15.3198 388.462 15.8469 388.845 16.5453C389.24 17.2438 389.438 18.0872 389.438 19.0756V25.5H387.204V19.4116C387.204 18.4364 386.96 17.6919 386.473 17.1779C385.985 16.6508 385.319 16.3872 384.476 16.3872C383.633 16.3872 382.961 16.6508 382.46 17.1779C381.972 17.6919 381.728 18.4364 381.728 19.4116V25.5H379.495V19.4116C379.495 18.4364 379.251 17.6919 378.763 17.1779C378.276 16.6508 377.61 16.3872 376.767 16.3872C375.923 16.3872 375.251 16.6508 374.75 17.1779C374.263 17.6919 374.019 18.4364 374.019 19.4116V25.5H371.766V14.6081H374.019V15.8535C374.388 15.4054 374.856 15.0562 375.423 14.8058C375.989 14.5554 376.595 14.4302 377.241 14.4302C378.111 14.4302 378.888 14.6147 379.574 14.9837C380.259 15.3527 380.786 15.8864 381.155 16.5849C381.485 15.926 381.998 15.4054 382.697 15.0233C383.395 14.6279 384.147 14.4302 384.95 14.4302ZM402.11 14.6081L395.428 30.6198H393.096L395.31 25.3221L391.02 14.6081H393.531L396.595 22.9105L399.777 14.6081H402.11ZM411.574 16.4465V22.4756C411.574 22.8841 411.667 23.1806 411.851 23.3651C412.049 23.5364 412.378 23.6221 412.84 23.6221H414.223V25.5H412.444C411.429 25.5 410.652 25.2628 410.112 24.7884C409.571 24.314 409.301 23.543 409.301 22.4756V16.4465H408.016V14.6081H409.301V11.9H411.574V14.6081H414.223V16.4465H411.574ZM426.283 19.7872C426.283 20.1957 426.256 20.5647 426.204 20.8942H417.882C417.947 21.764 418.27 22.4624 418.85 22.9895C419.43 23.5167 420.142 23.7802 420.985 23.7802C422.197 23.7802 423.054 23.2729 423.555 22.2581H425.986C425.657 23.2597 425.057 24.0833 424.187 24.7291C423.331 25.3616 422.263 25.6779 420.985 25.6779C419.944 25.6779 419.008 25.4473 418.178 24.986C417.361 24.5116 416.715 23.8527 416.241 23.0093C415.78 22.1527 415.549 21.1643 415.549 20.0442C415.549 18.924 415.773 17.9422 416.221 17.0988C416.682 16.2422 417.322 15.5833 418.139 15.1221C418.969 14.6609 419.918 14.4302 420.985 14.4302C422.013 14.4302 422.929 14.6543 423.733 15.1023C424.537 15.5504 425.163 16.1829 425.611 17C426.059 17.8039 426.283 18.7329 426.283 19.7872ZM423.93 19.0756C423.917 18.2453 423.621 17.5798 423.041 17.0791C422.461 16.5783 421.743 16.3279 420.886 16.3279C420.109 16.3279 419.443 16.5783 418.89 17.0791C418.336 17.5667 418.007 18.2322 417.901 19.0756H423.93ZM433.166 19.9849L436.684 25.5H434.134L431.782 21.8035L429.568 25.5H427.216L430.734 20.143L427.216 14.6081H429.766L432.118 18.3047L434.332 14.6081H436.684L433.166 19.9849ZM440.994 16.4465V22.4756C440.994 22.8841 441.086 23.1806 441.271 23.3651C441.468 23.5364 441.798 23.6221 442.259 23.6221H443.643V25.5H441.864C440.849 25.5 440.071 25.2628 439.531 24.7884C438.991 24.314 438.721 23.543 438.721 22.4756V16.4465H437.436V14.6081H438.721V11.9H440.994V14.6081H443.643V16.4465H440.994Z" fill="black"/>
<path d="M99.2465 55.1791H103.219V56.3837H97.7651V45.0372H99.2465V55.1791ZM108.683 56.5302C107.847 56.5302 107.087 56.3403 106.403 55.9605C105.731 55.5806 105.199 55.0434 104.808 54.3488C104.428 53.6434 104.238 52.8295 104.238 51.907C104.238 50.9953 104.434 50.1922 104.824 49.4977C105.226 48.7922 105.769 48.255 106.452 47.886C107.136 47.5062 107.901 47.3163 108.748 47.3163C109.594 47.3163 110.359 47.5062 111.043 47.886C111.727 48.255 112.264 48.7868 112.655 49.4814C113.056 50.176 113.257 50.9845 113.257 51.907C113.257 52.8295 113.051 53.6434 112.638 54.3488C112.237 55.0434 111.689 55.5806 110.994 55.9605C110.3 56.3403 109.529 56.5302 108.683 56.5302ZM108.683 55.2279C109.214 55.2279 109.714 55.1031 110.18 54.8535C110.647 54.6039 111.021 54.2295 111.303 53.7302C111.596 53.231 111.743 52.6233 111.743 51.907C111.743 51.1907 111.602 50.5829 111.32 50.0837C111.038 49.5845 110.669 49.2155 110.213 48.9767C109.757 48.7271 109.263 48.6023 108.731 48.6023C108.189 48.6023 107.689 48.7271 107.234 48.9767C106.789 49.2155 106.431 49.5845 106.159 50.0837C105.888 50.5829 105.752 51.1907 105.752 51.907C105.752 52.6341 105.883 53.2473 106.143 53.7465C106.414 54.2457 106.772 54.6202 107.217 54.8698C107.662 55.1085 108.151 55.2279 108.683 55.2279ZM116.686 48.9116C116.947 48.4015 117.316 48.0054 117.793 47.7233C118.281 47.4411 118.873 47.3 119.567 47.3V48.8302H119.177C117.516 48.8302 116.686 49.731 116.686 51.5326V56.3837H115.205V47.4628H116.686V48.9116ZM129.417 51.5814C129.417 51.8636 129.401 52.162 129.368 52.4767H122.238C122.292 53.3558 122.591 54.045 123.133 54.5442C123.687 55.0326 124.354 55.2767 125.136 55.2767C125.776 55.2767 126.308 55.1302 126.731 54.8372C127.165 54.5333 127.469 54.1318 127.643 53.6326H129.238C128.999 54.4899 128.522 55.1899 127.805 55.7326C127.089 56.2643 126.199 56.5302 125.136 56.5302C124.289 56.5302 123.53 56.3403 122.857 55.9605C122.195 55.5806 121.674 55.0434 121.294 54.3488C120.914 53.6434 120.724 52.8295 120.724 51.907C120.724 50.9845 120.909 50.176 121.278 49.4814C121.647 48.7868 122.162 48.255 122.824 47.886C123.497 47.5062 124.267 47.3163 125.136 47.3163C125.982 47.3163 126.731 47.5008 127.382 47.8698C128.033 48.2388 128.533 48.7488 128.88 49.4C129.238 50.0403 129.417 50.7674 129.417 51.5814ZM127.887 51.2721C127.887 50.7078 127.762 50.2248 127.512 49.8233C127.263 49.4109 126.921 49.1015 126.487 48.8953C126.064 48.6783 125.592 48.5698 125.071 48.5698C124.322 48.5698 123.681 48.8085 123.15 49.286C122.629 49.7636 122.33 50.4256 122.254 51.2721H127.887ZM142.1 47.3C142.795 47.3 143.414 47.4465 143.956 47.7395C144.499 48.0217 144.928 48.4504 145.242 49.0256C145.557 49.6008 145.714 50.3008 145.714 51.1256V56.3837H144.249V51.3372C144.249 50.4473 144.027 49.769 143.582 49.3023C143.148 48.8248 142.556 48.586 141.807 48.586C141.037 48.586 140.424 48.8357 139.968 49.3349C139.512 49.8233 139.284 50.5341 139.284 51.4674V56.3837H137.819V51.3372C137.819 50.4473 137.597 49.769 137.152 49.3023C136.717 48.8248 136.126 48.586 135.377 48.586C134.607 48.586 133.993 48.8357 133.538 49.3349C133.082 49.8233 132.854 50.5341 132.854 51.4674V56.3837H131.372V47.4628H132.854V48.7488C133.147 48.2822 133.538 47.924 134.026 47.6744C134.525 47.4248 135.073 47.3 135.67 47.3C136.419 47.3 137.081 47.4682 137.656 47.8046C138.231 48.1411 138.66 48.6349 138.942 49.286C139.192 48.6566 139.604 48.1682 140.179 47.8209C140.755 47.4736 141.395 47.3 142.1 47.3ZM153.966 45.0372V56.3837H152.484V45.0372H153.966ZM157.972 49.107C158.265 48.5969 158.699 48.1736 159.274 47.8372C159.86 47.4899 160.539 47.3163 161.309 47.3163C162.101 47.3163 162.818 47.5062 163.458 47.886C164.109 48.2659 164.619 48.8031 164.988 49.4977C165.357 50.1814 165.542 50.9791 165.542 51.8907C165.542 52.7915 165.357 53.5946 164.988 54.3C164.619 55.0054 164.109 55.5535 163.458 55.9442C162.818 56.3349 162.101 56.5302 161.309 56.5302C160.55 56.5302 159.877 56.362 159.291 56.0256C158.715 55.6783 158.276 55.2496 157.972 54.7395V60.6163H156.491V47.4628H157.972V49.107ZM164.028 51.8907C164.028 51.2178 163.892 50.6318 163.621 50.1326C163.35 49.6333 162.981 49.2535 162.514 48.993C162.058 48.7326 161.553 48.6023 161 48.6023C160.457 48.6023 159.953 48.738 159.486 49.0093C159.03 49.2698 158.661 49.655 158.379 50.1651C158.108 50.6643 157.972 51.245 157.972 51.907C157.972 52.5798 158.108 53.1713 158.379 53.6814C158.661 54.1806 159.03 54.5659 159.486 54.8372C159.953 55.0977 160.457 55.2279 161 55.2279C161.553 55.2279 162.058 55.0977 162.514 54.8372C162.981 54.5659 163.35 54.1806 163.621 53.6814C163.892 53.1713 164.028 52.5744 164.028 51.8907ZM170.65 56.5302C169.966 56.5302 169.353 56.4163 168.81 56.1884C168.268 55.9496 167.839 55.624 167.524 55.2116C167.21 54.7884 167.036 54.3054 167.003 53.7628H168.534C168.577 54.2078 168.783 54.5713 169.152 54.8535C169.532 55.1357 170.026 55.2767 170.634 55.2767C171.198 55.2767 171.643 55.1519 171.968 54.9023C172.294 54.6527 172.457 54.338 172.457 53.9581C172.457 53.5674 172.283 53.2798 171.936 53.0953C171.589 52.9 171.051 52.7101 170.324 52.5256C169.662 52.3519 169.12 52.1783 168.696 52.0046C168.284 51.8202 167.926 51.5543 167.622 51.207C167.329 50.8488 167.182 50.3822 167.182 49.807C167.182 49.3512 167.318 48.9333 167.589 48.5535C167.861 48.1736 168.246 47.8752 168.745 47.6581C169.244 47.4302 169.814 47.3163 170.454 47.3163C171.442 47.3163 172.24 47.5659 172.848 48.0651C173.455 48.5643 173.781 49.2481 173.824 50.1163H172.343C172.31 49.6496 172.12 49.2752 171.773 48.993C171.437 48.7109 170.981 48.5698 170.406 48.5698C169.874 48.5698 169.451 48.6837 169.136 48.9116C168.821 49.1395 168.664 49.438 168.664 49.807C168.664 50.1 168.756 50.3442 168.941 50.5395C169.136 50.724 169.375 50.876 169.657 50.9953C169.95 51.1039 170.351 51.2287 170.861 51.3698C171.502 51.5434 172.023 51.7171 172.424 51.8907C172.826 52.0535 173.168 52.3031 173.45 52.6395C173.743 52.976 173.895 53.4155 173.906 53.9581C173.906 54.4465 173.77 54.886 173.499 55.2767C173.227 55.6674 172.842 55.9767 172.343 56.2047C171.854 56.4217 171.29 56.5302 170.65 56.5302ZM183.908 47.4628V56.3837H182.427V55.0651C182.145 55.5209 181.749 55.8791 181.239 56.1395C180.74 56.3891 180.186 56.514 179.578 56.514C178.884 56.514 178.26 56.3729 177.706 56.0907C177.153 55.7977 176.713 55.3636 176.388 54.7884C176.073 54.2132 175.915 53.5132 175.915 52.6884V47.4628H177.381V52.493C177.381 53.3721 177.603 54.0504 178.048 54.5279C178.493 54.9946 179.101 55.2279 179.871 55.2279C180.664 55.2279 181.288 54.9837 181.743 54.4953C182.199 54.007 182.427 53.2961 182.427 52.3628V47.4628H183.908ZM197.138 47.3C197.832 47.3 198.451 47.4465 198.993 47.7395C199.536 48.0217 199.965 48.4504 200.28 49.0256C200.594 49.6008 200.752 50.3008 200.752 51.1256V56.3837H199.286V51.3372C199.286 50.4473 199.064 49.769 198.619 49.3023C198.185 48.8248 197.593 48.586 196.845 48.586C196.074 48.586 195.461 48.8357 195.005 49.3349C194.549 49.8233 194.321 50.5341 194.321 51.4674V56.3837H192.856V51.3372C192.856 50.4473 192.634 49.769 192.189 49.3023C191.755 48.8248 191.163 48.586 190.414 48.586C189.644 48.586 189.031 48.8357 188.575 49.3349C188.119 49.8233 187.891 50.5341 187.891 51.4674V56.3837H186.41V47.4628H187.891V48.7488C188.184 48.2822 188.575 47.924 189.063 47.6744C189.562 47.4248 190.111 47.3 190.707 47.3C191.456 47.3 192.118 47.4682 192.693 47.8046C193.269 48.1411 193.697 48.6349 193.98 49.286C194.229 48.6566 194.642 48.1682 195.217 47.8209C195.792 47.4736 196.432 47.3 197.138 47.3ZM208.287 46.014C208.005 46.014 207.766 45.9163 207.571 45.7209C207.375 45.5256 207.277 45.2868 207.277 45.0046C207.277 44.7225 207.375 44.4837 207.571 44.2884C207.766 44.093 208.005 43.9953 208.287 43.9953C208.558 43.9953 208.786 44.093 208.971 44.2884C209.166 44.4837 209.264 44.7225 209.264 45.0046C209.264 45.2868 209.166 45.5256 208.971 45.7209C208.786 45.9163 208.558 46.014 208.287 46.014ZM209.003 47.4628V56.3837H207.522V47.4628H209.003ZM214.686 56.5302C214.002 56.5302 213.389 56.4163 212.846 56.1884C212.304 55.9496 211.875 55.624 211.56 55.2116C211.246 54.7884 211.072 54.3054 211.039 53.7628H212.57C212.613 54.2078 212.819 54.5713 213.188 54.8535C213.568 55.1357 214.062 55.2767 214.67 55.2767C215.234 55.2767 215.679 55.1519 216.005 54.9023C216.33 54.6527 216.493 54.338 216.493 53.9581C216.493 53.5674 216.319 53.2798 215.972 53.0953C215.625 52.9 215.088 52.7101 214.36 52.5256C213.698 52.3519 213.156 52.1783 212.733 52.0046C212.32 51.8202 211.962 51.5543 211.658 51.207C211.365 50.8488 211.219 50.3822 211.219 49.807C211.219 49.3512 211.354 48.9333 211.626 48.5535C211.897 48.1736 212.282 47.8752 212.781 47.6581C213.281 47.4302 213.85 47.3163 214.491 47.3163C215.478 47.3163 216.276 47.5659 216.884 48.0651C217.491 48.5643 217.817 49.2481 217.86 50.1163H216.379C216.346 49.6496 216.157 49.2752 215.809 48.993C215.473 48.7109 215.017 48.5698 214.442 48.5698C213.91 48.5698 213.487 48.6837 213.172 48.9116C212.857 49.1395 212.7 49.438 212.7 49.807C212.7 50.1 212.792 50.3442 212.977 50.5395C213.172 50.724 213.411 50.876 213.693 50.9953C213.986 51.1039 214.388 51.2287 214.898 51.3698C215.538 51.5434 216.059 51.7171 216.46 51.8907C216.862 52.0535 217.204 52.3031 217.486 52.6395C217.779 52.976 217.931 53.4155 217.942 53.9581C217.942 54.4465 217.806 54.886 217.535 55.2767C217.264 55.6674 216.878 55.9767 216.379 56.2047C215.891 56.4217 215.326 56.5302 214.686 56.5302ZM227.531 56.5302C226.847 56.5302 226.234 56.4163 225.692 56.1884C225.149 55.9496 224.72 55.624 224.406 55.2116C224.091 54.7884 223.917 54.3054 223.885 53.7628H225.415C225.458 54.2078 225.665 54.5713 226.034 54.8535C226.413 55.1357 226.907 55.2767 227.515 55.2767C228.079 55.2767 228.524 55.1519 228.85 54.9023C229.175 54.6527 229.338 54.338 229.338 53.9581C229.338 53.5674 229.165 53.2798 228.817 53.0953C228.47 52.9 227.933 52.7101 227.206 52.5256C226.544 52.3519 226.001 52.1783 225.578 52.0046C225.165 51.8202 224.807 51.5543 224.503 51.207C224.21 50.8488 224.064 50.3822 224.064 49.807C224.064 49.3512 224.199 48.9333 224.471 48.5535C224.742 48.1736 225.127 47.8752 225.627 47.6581C226.126 47.4302 226.696 47.3163 227.336 47.3163C228.323 47.3163 229.121 47.5659 229.729 48.0651C230.337 48.5643 230.662 49.2481 230.706 50.1163H229.224C229.192 49.6496 229.002 49.2752 228.654 48.993C228.318 48.7109 227.862 48.5698 227.287 48.5698C226.755 48.5698 226.332 48.6837 226.017 48.9116C225.703 49.1395 225.545 49.438 225.545 49.807C225.545 50.1 225.637 50.3442 225.822 50.5395C226.017 50.724 226.256 50.876 226.538 50.9953C226.831 51.1039 227.233 51.2287 227.743 51.3698C228.383 51.5434 228.904 51.7171 229.306 51.8907C229.707 52.0535 230.049 52.3031 230.331 52.6395C230.624 52.976 230.776 53.4155 230.787 53.9581C230.787 54.4465 230.651 54.886 230.38 55.2767C230.109 55.6674 229.723 55.9767 229.224 56.2047C228.736 56.4217 228.172 56.5302 227.531 56.5302ZM233.643 46.014C233.361 46.014 233.122 45.9163 232.927 45.7209C232.732 45.5256 232.634 45.2868 232.634 45.0046C232.634 44.7225 232.732 44.4837 232.927 44.2884C233.122 44.093 233.361 43.9953 233.643 43.9953C233.915 43.9953 234.143 44.093 234.327 44.2884C234.522 44.4837 234.62 44.7225 234.62 45.0046C234.62 45.2868 234.522 45.5256 234.327 45.7209C234.143 45.9163 233.915 46.014 233.643 46.014ZM234.36 47.4628V56.3837H232.878V47.4628H234.36ZM247.612 47.3C248.307 47.3 248.925 47.4465 249.468 47.7395C250.011 48.0217 250.439 48.4504 250.754 49.0256C251.069 49.6008 251.226 50.3008 251.226 51.1256V56.3837H249.761V51.3372C249.761 50.4473 249.539 49.769 249.094 49.3023C248.66 48.8248 248.068 48.586 247.319 48.586C246.549 48.586 245.936 48.8357 245.48 49.3349C245.024 49.8233 244.796 50.5341 244.796 51.4674V56.3837H243.331V51.3372C243.331 50.4473 243.108 49.769 242.663 49.3023C242.229 48.8248 241.638 48.586 240.889 48.586C240.119 48.586 239.505 48.8357 239.05 49.3349C238.594 49.8233 238.366 50.5341 238.366 51.4674V56.3837H236.884V47.4628H238.366V48.7488C238.659 48.2822 239.05 47.924 239.538 47.6744C240.037 47.4248 240.585 47.3 241.182 47.3C241.931 47.3 242.593 47.4682 243.168 47.8046C243.743 48.1411 244.172 48.6349 244.454 49.286C244.704 48.6566 245.116 48.1682 245.691 47.8209C246.267 47.4736 246.907 47.3 247.612 47.3ZM255.138 49.107C255.431 48.5969 255.865 48.1736 256.44 47.8372C257.026 47.4899 257.704 47.3163 258.475 47.3163C259.267 47.3163 259.983 47.5062 260.624 47.886C261.275 48.2659 261.785 48.8031 262.154 49.4977C262.523 50.1814 262.707 50.9791 262.707 51.8907C262.707 52.7915 262.523 53.5946 262.154 54.3C261.785 55.0054 261.275 55.5535 260.624 55.9442C259.983 56.3349 259.267 56.5302 258.475 56.5302C257.715 56.5302 257.042 56.362 256.456 56.0256C255.881 55.6783 255.442 55.2496 255.138 54.7395V60.6163H253.656V47.4628H255.138V49.107ZM261.194 51.8907C261.194 51.2178 261.058 50.6318 260.787 50.1326C260.515 49.6333 260.146 49.2535 259.68 48.993C259.224 48.7326 258.719 48.6023 258.166 48.6023C257.623 48.6023 257.118 48.738 256.652 49.0093C256.196 49.2698 255.827 49.655 255.545 50.1651C255.273 50.6643 255.138 51.245 255.138 51.907C255.138 52.5798 255.273 53.1713 255.545 53.6814C255.827 54.1806 256.196 54.5659 256.652 54.8372C257.118 55.0977 257.623 55.2279 258.166 55.2279C258.719 55.2279 259.224 55.0977 259.68 54.8372C260.146 54.5659 260.515 54.1806 260.787 53.6814C261.058 53.1713 261.194 52.5744 261.194 51.8907ZM266.139 44.3372V56.3837H264.657V44.3372H266.139ZM276.347 47.4628L270.975 60.5837H269.445L271.203 56.286L267.605 47.4628H269.25L272.05 54.6907L274.817 47.4628H276.347ZM281.623 51.8907C281.623 50.9791 281.807 50.1814 282.176 49.4977C282.545 48.8031 283.05 48.2659 283.69 47.886C284.342 47.5062 285.069 47.3163 285.872 47.3163C286.566 47.3163 287.212 47.4791 287.809 47.8046C288.406 48.1194 288.862 48.5372 289.176 49.0581V44.3372H290.674V56.3837H289.176V54.707C288.883 55.2388 288.449 55.6783 287.874 56.0256C287.299 56.362 286.626 56.5302 285.856 56.5302C285.063 56.5302 284.342 56.3349 283.69 55.9442C283.05 55.5535 282.545 55.0054 282.176 54.3C281.807 53.5946 281.623 52.7915 281.623 51.8907ZM289.176 51.907C289.176 51.2341 289.041 50.6481 288.77 50.1488C288.498 49.6496 288.129 49.2698 287.663 49.0093C287.207 48.738 286.702 48.6023 286.149 48.6023C285.595 48.6023 285.09 48.7326 284.635 48.993C284.179 49.2535 283.815 49.6333 283.544 50.1326C283.273 50.6318 283.137 51.2178 283.137 51.8907C283.137 52.5744 283.273 53.1713 283.544 53.6814C283.815 54.1806 284.179 54.5659 284.635 54.8372C285.09 55.0977 285.595 55.2279 286.149 55.2279C286.702 55.2279 287.207 55.0977 287.663 54.8372C288.129 54.5659 288.498 54.1806 288.77 53.6814C289.041 53.1713 289.176 52.5798 289.176 51.907ZM301.089 47.4628V56.3837H299.608V55.0651C299.326 55.5209 298.929 55.8791 298.419 56.1395C297.92 56.3891 297.367 56.514 296.759 56.514C296.064 56.514 295.44 56.3729 294.887 56.0907C294.333 55.7977 293.894 55.3636 293.568 54.7884C293.254 54.2132 293.096 53.5132 293.096 52.6884V47.4628H294.561V52.493C294.561 53.3721 294.784 54.0504 295.229 54.5279C295.674 54.9946 296.281 55.2279 297.052 55.2279C297.844 55.2279 298.468 54.9837 298.924 54.4953C299.38 54.007 299.608 53.2961 299.608 52.3628V47.4628H301.089ZM314.318 47.3C315.013 47.3 315.632 47.4465 316.174 47.7395C316.717 48.0217 317.145 48.4504 317.46 49.0256C317.775 49.6008 317.932 50.3008 317.932 51.1256V56.3837H316.467V51.3372C316.467 50.4473 316.245 49.769 315.8 49.3023C315.366 48.8248 314.774 48.586 314.025 48.586C313.255 48.586 312.642 48.8357 312.186 49.3349C311.73 49.8233 311.502 50.5341 311.502 51.4674V56.3837H310.037V51.3372C310.037 50.4473 309.814 49.769 309.37 49.3023C308.935 48.8248 308.344 48.586 307.595 48.586C306.825 48.586 306.211 48.8357 305.756 49.3349C305.3 49.8233 305.072 50.5341 305.072 51.4674V56.3837H303.59V47.4628H305.072V48.7488C305.365 48.2822 305.756 47.924 306.244 47.6744C306.743 47.4248 307.291 47.3 307.888 47.3C308.637 47.3 309.299 47.4682 309.874 47.8046C310.449 48.1411 310.878 48.6349 311.16 49.286C311.41 48.6566 311.822 48.1682 312.397 47.8209C312.973 47.4736 313.613 47.3 314.318 47.3ZM331.09 47.3C331.785 47.3 332.403 47.4465 332.946 47.7395C333.489 48.0217 333.917 48.4504 334.232 49.0256C334.547 49.6008 334.704 50.3008 334.704 51.1256V56.3837H333.239V51.3372C333.239 50.4473 333.017 49.769 332.572 49.3023C332.138 48.8248 331.546 48.586 330.797 48.586C330.027 48.586 329.414 48.8357 328.958 49.3349C328.502 49.8233 328.274 50.5341 328.274 51.4674V56.3837H326.809V51.3372C326.809 50.4473 326.586 49.769 326.141 49.3023C325.707 48.8248 325.116 48.586 324.367 48.586C323.596 48.586 322.983 48.8357 322.527 49.3349C322.072 49.8233 321.844 50.5341 321.844 51.4674V56.3837H320.362V47.4628H321.844V48.7488C322.137 48.2822 322.527 47.924 323.016 47.6744C323.515 47.4248 324.063 47.3 324.66 47.3C325.409 47.3 326.071 47.4682 326.646 47.8046C327.221 48.1411 327.65 48.6349 327.932 49.286C328.182 48.6566 328.594 48.1682 329.169 47.8209C329.745 47.4736 330.385 47.3 331.09 47.3ZM344.818 47.4628L339.446 60.5837H337.916L339.674 56.286L336.076 47.4628H337.72L340.52 54.6907L343.288 47.4628H344.818ZM352.454 48.6837V53.9419C352.454 54.376 352.546 54.6853 352.731 54.8698C352.915 55.0434 353.236 55.1302 353.691 55.1302H354.782V56.3837H353.447C352.622 56.3837 352.004 56.1938 351.591 55.814C351.179 55.4341 350.973 54.8101 350.973 53.9419V48.6837H349.817V47.4628H350.973V45.2163H352.454V47.4628H354.782V48.6837H352.454ZM364.716 51.5814C364.716 51.8636 364.7 52.162 364.668 52.4767H357.537C357.592 53.3558 357.89 54.045 358.433 54.5442C358.986 55.0326 359.654 55.2767 360.435 55.2767C361.075 55.2767 361.607 55.1302 362.03 54.8372C362.465 54.5333 362.768 54.1318 362.942 53.6326H364.537C364.299 54.4899 363.821 55.1899 363.105 55.7326C362.389 56.2643 361.499 56.5302 360.435 56.5302C359.589 56.5302 358.829 56.3403 358.156 55.9605C357.494 55.5806 356.973 55.0434 356.593 54.3488C356.213 53.6434 356.023 52.8295 356.023 51.907C356.023 50.9845 356.208 50.176 356.577 49.4814C356.946 48.7868 357.461 48.255 358.123 47.886C358.796 47.5062 359.567 47.3163 360.435 47.3163C361.282 47.3163 362.03 47.5008 362.682 47.8698C363.333 48.2388 363.832 48.7488 364.179 49.4C364.537 50.0403 364.716 50.7674 364.716 51.5814ZM363.186 51.2721C363.186 50.7078 363.061 50.2248 362.812 49.8233C362.562 49.4109 362.22 49.1015 361.786 48.8953C361.363 48.6783 360.891 48.5698 360.37 48.5698C359.621 48.5698 358.981 48.8085 358.449 49.286C357.928 49.7636 357.63 50.4256 357.554 51.2721H363.186ZM371.328 56.3837L369.211 53.0628L367.177 56.3837H365.63L368.511 51.9558L365.63 47.4628H367.307L369.423 50.7674L371.442 47.4628H372.988L370.123 51.8744L373.004 56.3837H371.328ZM376.269 48.6837V53.9419C376.269 54.376 376.361 54.6853 376.545 54.8698C376.73 55.0434 377.05 55.1302 377.506 55.1302H378.597V56.3837H377.262C376.437 56.3837 375.818 56.1938 375.406 55.814C374.993 55.4341 374.787 54.8101 374.787 53.9419V48.6837H373.631V47.4628H374.787V45.2163H376.269V47.4628H378.597V48.6837H376.269Z" fill="#868686"/>
<defs>
<clipPath id="clip0_408_5135">
<rect width="30.2326" height="30.2326" fill="white" transform="translate(18.6047 18.9419)"/>
</clipPath>
</defs>
</svg>
