<svg width="91" height="90" viewBox="0 0 91 90" fill="none" xmlns="http://www.w3.org/2000/svg">
<rect width="91" height="90" rx="20" fill="#E2F3FF"/>
<g clip-path="url(#clip0_723_4199)">
<path d="M46.5138 43.487C46.2007 43.1739 45.6938 43.1739 45.3807 43.487C45.0684 43.7993 45.0684 44.3062 45.3807 44.6193C45.6938 44.9316 46.2007 44.9316 46.5138 44.6193C46.8262 44.3062 46.8262 43.7993 46.5138 43.487Z" fill="#0073C6"/>
<path d="M56.7055 33.2947C55.1408 31.7301 52.6078 31.73 51.043 33.2947C49.4823 34.8554 49.4823 37.3954 51.0432 38.9574C52.6044 40.5176 55.1445 40.5182 56.7055 38.9572C58.2701 37.3926 58.2704 34.8595 56.7055 33.2947ZM55.5731 37.8247C54.6367 38.7611 53.1125 38.7611 52.1757 37.8248C51.2392 36.8877 51.2391 35.3635 52.1755 34.4272C53.1143 33.4884 54.6342 33.4883 55.5731 34.4272C56.5118 35.3659 56.512 36.8858 55.5731 37.8247Z" fill="#0073C6"/>
<path d="M65.7653 24.2346C65.608 24.0774 65.3934 23.9922 65.1703 24.0006C64.9892 24.0071 60.6782 24.1803 55.5537 25.9916C51.4473 27.4415 48.0245 29.5174 45.3804 32.1616C44.7879 32.7541 44.2113 33.3823 43.6597 34.0351C41.0453 32.4961 38.9503 32.9787 37.6259 33.6874C34.5764 35.3194 32.6889 39.7506 32.6889 42.9201C32.6891 43.2439 32.8843 43.536 33.1835 43.6599C33.2825 43.701 33.3866 43.7209 33.4898 43.7209C33.6982 43.7209 33.903 43.6395 34.0562 43.4863C35.6644 41.8781 37.648 41.9787 38.296 42.0639L38.5764 42.3444C38.0245 43.6576 37.5799 44.9635 37.2538 46.2337C37.1361 46.6933 37.1758 47.1797 37.3508 47.6246C36.5798 47.9799 35.836 48.5016 35.1883 49.1493C33.127 51.2107 32.7084 56.2343 32.6916 56.4471C32.6732 56.6807 32.7579 56.9107 32.9236 57.0764C33.0744 57.2271 33.2784 57.3109 33.4898 57.3109C33.5107 57.3109 33.5318 57.3101 33.5529 57.3084C33.7657 57.2917 38.7895 56.8731 40.8508 54.8119C41.4982 54.1644 42.0198 53.4207 42.3751 52.6498C42.8462 52.835 43.3309 52.8579 43.7669 52.7462C45.0364 52.4202 46.3422 51.9757 47.6556 51.4238L47.9361 51.7042C48.0212 52.3523 48.1218 54.3359 46.5136 55.9439C46.2847 56.1729 46.2162 56.5174 46.3401 56.8165C46.464 57.1158 46.756 57.3108 47.0799 57.3108C50.2494 57.3108 54.6805 55.4233 56.3125 52.3739C57.0212 51.0496 57.5038 48.9546 55.9648 46.3402C56.6172 45.7887 57.2456 45.2122 57.8384 44.6194C60.4825 41.9753 62.5583 38.5525 64.0082 34.4464C65.8196 29.3216 65.9928 25.0105 65.9993 24.8295C66.0073 24.6073 65.9225 24.3918 65.7653 24.2346ZM34.4793 41.1977C34.9767 38.7903 36.4216 36.1486 38.3819 35.0995C39.6919 34.3985 41.1238 34.4672 42.6462 35.3005C41.3492 37.0064 40.2216 38.8441 39.2817 40.7848C39.2698 40.7775 39.1257 40.5962 38.8579 40.5359C38.7478 40.511 36.629 40.0552 34.4793 41.1977ZM39.7183 53.6793C38.6172 54.7804 36.0343 55.3611 34.4018 55.5982C34.639 53.9656 35.2198 51.3828 36.3208 50.2818C36.9374 49.6652 37.6523 49.1977 38.3709 48.9344L41.0657 51.6292C40.8024 52.3478 40.335 53.0627 39.7183 53.6793ZM43.3691 51.1947C43.1373 51.2541 42.8689 51.1669 42.6693 50.9677C41.6334 49.9317 41.2281 49.5265 41.1009 49.3994C40.8677 49.1662 40.2959 48.5944 39.0328 47.3312C38.8331 47.1311 38.746 46.8628 38.8052 46.6314C39.0617 45.6325 39.3971 44.6077 39.805 43.573L46.4271 50.195C45.3922 50.603 44.3676 50.9384 43.3691 51.1947ZM54.9006 51.6182C53.8514 53.5784 51.2098 55.0233 48.8025 55.5207C49.5701 54.0763 49.7393 52.2377 49.4588 51.1227C49.3937 50.8638 49.2248 50.7336 49.2153 50.7183C51.1558 49.7784 52.9936 48.6508 54.6995 47.3538C55.5329 48.8764 55.6015 50.3084 54.9006 51.6182ZM56.7061 43.487C55.9845 44.2085 55.2075 44.9056 54.3966 45.5588C52.4473 47.1283 50.3019 48.4577 48.0129 49.5161L40.484 41.9873C41.5423 39.6982 42.8718 37.5527 44.4411 35.6037C45.0949 34.7923 45.7919 34.0152 46.5132 33.294C48.8855 30.9216 51.9472 29.0335 55.6157 27.6745L62.3256 34.3844C60.9667 38.0528 59.0786 41.1145 56.7061 43.487ZM62.9018 32.6954L57.3046 27.0983C60.3541 26.1511 63.007 25.7965 64.3312 25.669C64.2036 26.9934 63.8488 29.6463 62.9018 32.6954Z" fill="#0073C6"/>
<path d="M44.2484 57.0761C43.9356 56.7634 43.4285 56.7636 43.1159 57.0763L40.8513 59.3417C40.5386 59.6545 40.5387 60.1615 40.8514 60.4742C41.1643 60.7868 41.6713 60.7868 41.984 60.474L44.2486 58.2086C44.5612 57.8958 44.5611 57.3887 44.2484 57.0761Z" fill="#0073C6"/>
<path d="M32.9241 45.7517C32.6115 45.4389 32.1045 45.4389 31.7916 45.7515L29.5262 48.0161C29.2134 48.3288 29.2133 48.8358 29.526 49.1486C29.8385 49.4612 30.3455 49.4615 30.6584 49.1488L32.9238 46.8842C33.2366 46.5715 33.2367 46.0645 32.9241 45.7517Z" fill="#0073C6"/>
<path d="M38.5863 58.2094C38.2738 57.8967 37.7666 57.8967 37.4539 58.2093L32.0294 63.633C31.7166 63.9457 31.7166 64.4528 32.0293 64.7655C32.3418 65.0782 32.849 65.0783 33.1618 64.7655L38.5862 59.3419C38.899 59.0292 38.899 58.5221 38.5863 58.2094Z" fill="#0073C6"/>
<path d="M32.18 58.2094C31.8674 57.8967 31.3603 57.8967 31.0476 58.2093L25.6231 63.633C25.3103 63.9457 25.3103 64.4528 25.623 64.7655C25.9356 65.0782 26.4427 65.0783 26.7555 64.7655L32.18 59.3419C32.4927 59.0292 32.4927 58.5221 32.18 58.2094Z" fill="#0073C6"/>
<path d="M31.7908 51.4138C31.4782 51.1012 30.971 51.1012 30.6583 51.4139L25.2346 56.8383C24.9219 57.1511 24.9219 57.6581 25.2347 57.9709C25.5474 58.2836 26.0545 58.2836 26.3672 57.9708L31.7909 52.5463C32.1036 52.2335 32.1036 51.7266 31.7908 51.4138Z" fill="#0073C6"/>
<path d="M49.9109 40.0891C49.5981 39.7764 49.0912 39.7764 48.7784 40.0891L47.6461 41.2214C47.3334 41.5341 47.3334 42.0412 47.6461 42.354C47.9588 42.6667 48.4658 42.6667 48.7786 42.354L49.9109 41.2217C50.2236 40.909 50.2236 40.4019 49.9109 40.0891Z" fill="#0073C6"/>
</g>
<defs>
<clipPath id="clip0_723_4199">
<rect width="41" height="41" fill="white" transform="translate(25 24)"/>
</clipPath>
</defs>
</svg>
