<svg width="83" height="83" viewBox="0 0 83 83" fill="none" xmlns="http://www.w3.org/2000/svg">
<rect width="83" height="83" rx="20" fill="#ECFFDA"/>
<path d="M56.7197 40.6592L42.5987 26.5381C41.6069 25.5464 40.2885 25 38.886 25H28C26.3454 25 25 26.3454 25 28V38.886C25 40.2886 25.5464 41.607 26.5381 42.5987L40.6592 56.7197C41.4729 57.5335 42.5994 58 43.75 58C44.9006 58 46.027 57.5335 46.8408 56.7197L56.7197 46.8408C57.5334 46.0271 57.9999 44.9006 57.9999 43.75C57.9999 42.5994 57.5335 41.4729 56.7197 40.6592ZM55.6592 45.7803L45.7803 55.6592C44.711 56.7285 42.7891 56.7285 41.7198 55.6592L27.5986 41.5381C26.8904 40.8298 26.5 39.8879 26.5 38.886V28C26.5 27.1732 27.1731 26.5 28 26.5H38.886C39.888 26.5 40.8299 26.8904 41.5381 27.5987L55.6592 41.7198C56.1939 42.2544 56.5 42.9942 56.5 43.75C56.5 44.5059 56.1939 45.2456 55.6592 45.7803Z" fill="#5FC400"/>
<path d="M31 28C29.3454 28 27.9999 29.3454 27.9999 31C27.9999 32.6546 29.3454 34 31 34C32.6545 34 34 32.6545 34 31C34 29.3454 32.6546 28 31 28ZM31 32.5C30.1731 32.5 29.5 31.8269 29.5 31C29.5 30.1731 30.1731 29.5 31 29.5C31.8268 29.5 32.4999 30.1731 32.4999 31C32.5 31.8269 31.8269 32.5 31 32.5Z" fill="#5FC400"/>
</svg>
