<svg width="91" height="90" viewBox="0 0 91 90" fill="none" xmlns="http://www.w3.org/2000/svg">
<rect width="91" height="90" rx="20" fill="#FFF2F2"/>
<path d="M45.5 25C34.1956 25 25 34.1965 25 45.5C25 56.8035 34.1956 66 45.5 66C56.8044 66 66 56.8035 66 45.5C66 34.1965 56.8044 25 45.5 25ZM45.5 64.2917C35.1382 64.2917 26.7083 55.8618 26.7083 45.5C26.7083 35.1382 35.1382 26.7083 45.5 26.7083C55.8618 26.7083 64.2917 35.1382 64.2917 45.5C64.2917 55.8618 55.8618 64.2917 45.5 64.2917Z" fill="#FF4E4E"/>
<path d="M41.2291 33.5416H36.1041C34.6911 33.5416 33.5416 34.6911 33.5416 36.1041V41.2291C33.5416 42.6422 34.6911 43.7916 36.1041 43.7916H41.2291C42.6422 43.7916 43.7916 42.6422 43.7916 41.2291V36.1041C43.7916 34.6911 42.6422 33.5416 41.2291 33.5416ZM42.0833 41.2291C42.0833 41.7004 41.6995 42.0833 41.2291 42.0833H36.1041C35.6336 42.0833 35.2499 41.7005 35.2499 41.2291V36.1041C35.2499 35.6329 35.6336 35.2499 36.1041 35.2499H41.2291C41.6995 35.2499 42.0833 35.6328 42.0833 36.1041V41.2291Z" fill="#FF4E4E"/>
<path d="M54.8958 33.5416H49.7708C48.3578 33.5416 47.2083 34.6911 47.2083 36.1041V41.2291C47.2083 42.6422 48.3578 43.7916 49.7708 43.7916H54.8958C56.3089 43.7916 57.4583 42.6422 57.4583 41.2291V36.1041C57.4583 34.6911 56.3089 33.5416 54.8958 33.5416ZM55.75 41.2291C55.75 41.7004 55.3663 42.0833 54.8958 42.0833H49.7708C49.3004 42.0833 48.9166 41.7005 48.9166 41.2291V36.1041C48.9166 35.6329 49.3004 35.2499 49.7708 35.2499H54.8958C55.3663 35.2499 55.75 35.6328 55.75 36.1041V41.2291Z" fill="#FF4E4E"/>
<path d="M41.2291 47.2083H36.1041C34.6911 47.2083 33.5416 48.3577 33.5416 49.7708V54.8958C33.5416 56.3088 34.6911 57.4583 36.1041 57.4583H41.2291C42.6422 57.4583 43.7916 56.3088 43.7916 54.8958V49.7708C43.7916 48.3578 42.6422 47.2083 41.2291 47.2083ZM42.0833 54.8958C42.0833 55.367 41.6995 55.7499 41.2291 55.7499H36.1041C35.6336 55.7499 35.2499 55.3671 35.2499 54.8958V49.7708C35.2499 49.2995 35.6336 48.9166 36.1041 48.9166H41.2291C41.6995 48.9166 42.0833 49.2994 42.0833 49.7708V54.8958Z" fill="#FF4E4E"/>
<path d="M54.8958 47.2083H49.7708C48.3578 47.2083 47.2083 48.3577 47.2083 49.7708V54.8958C47.2083 56.3088 48.3578 57.4583 49.7708 57.4583H54.8958C56.3089 57.4583 57.4583 56.3088 57.4583 54.8958V49.7708C57.4583 48.3578 56.3089 47.2083 54.8958 47.2083ZM55.75 54.8958C55.75 55.367 55.3663 55.7499 54.8958 55.7499H49.7708C49.3004 55.7499 48.9166 55.3671 48.9166 54.8958V49.7708C48.9166 49.2995 49.3004 48.9166 49.7708 48.9166H54.8958C55.3663 48.9166 55.75 49.2994 55.75 49.7708V54.8958Z" fill="#FF4E4E"/>
</svg>
