<svg width="66" height="66" viewBox="0 0 66 66" fill="none" xmlns="http://www.w3.org/2000/svg">
<circle cx="32.7093" cy="32.8314" r="32.7093" fill="#263D67"/>
<g clip-path="url(#clip0_482_4098)">
<path d="M33.1583 24.0292C26.689 24.0292 21.4258 29.2924 21.4258 35.7617C21.4258 42.231 26.689 47.4942 33.1583 47.4942C39.6276 47.4942 44.8908 42.231 44.8908 35.7617C44.8908 29.2924 39.6276 24.0292 33.1583 24.0292ZM33.1583 45.7759C27.6365 45.7759 23.1441 41.2835 23.1441 35.7617C23.1441 30.2399 27.6365 25.7475 33.1583 25.7475C38.6801 25.7475 43.1725 30.2399 43.1725 35.7617C43.1725 41.2835 38.6802 45.7759 33.1583 45.7759Z" fill="white"/>
<path d="M38.282 37.9435C37.9219 37.6346 37.3795 37.6761 37.0706 38.0363C36.0895 39.18 34.6636 39.836 33.1583 39.836C31.6531 39.836 30.2272 39.18 29.2461 38.0363C28.9372 37.6762 28.3948 37.6347 28.0347 37.9436C27.6745 38.2526 27.633 38.795 27.942 39.1551C29.2498 40.6798 31.1512 41.5543 33.1584 41.5543C35.1656 41.5543 37.067 40.6798 38.3748 39.1549C38.6837 38.7949 38.6422 38.2524 38.282 37.9435Z" fill="white"/>
<path d="M28.3887 34.4104C28.8632 34.4104 29.2479 34.0257 29.2479 33.5512C29.2479 33.2758 29.472 33.0517 29.7474 33.0517C30.0229 33.0517 30.247 33.2758 30.247 33.5512C30.247 34.0257 30.6317 34.4104 31.1061 34.4104C31.5806 34.4104 31.9653 34.0257 31.9653 33.5512C31.9653 32.3283 30.9703 31.3334 29.7474 31.3334C28.5245 31.3334 27.5296 32.3283 27.5296 33.5512C27.5296 34.0258 27.9142 34.4104 28.3887 34.4104Z" fill="white"/>
<path d="M36.5692 31.3334C35.3463 31.3334 34.3514 32.3283 34.3514 33.5512C34.3514 34.0257 34.736 34.4104 35.2105 34.4104C35.685 34.4104 36.0697 34.0257 36.0697 33.5512C36.0697 33.2758 36.2938 33.0517 36.5692 33.0517C36.8447 33.0517 37.0688 33.2758 37.0688 33.5512C37.0688 34.0257 37.4535 34.4104 37.9279 34.4104C38.4024 34.4104 38.7871 34.0257 38.7871 33.5512C38.7871 32.3283 37.7921 31.3334 36.5692 31.3334Z" fill="white"/>
<path d="M40.2366 22.9948H41.49C41.9645 22.9948 42.3491 22.6101 42.3491 22.1356C42.3491 21.6612 41.9645 21.2765 41.49 21.2765H40.2366C39.7621 21.2765 39.3774 21.6612 39.3774 22.1356C39.3774 22.6101 39.7621 22.9948 40.2366 22.9948Z" fill="white"/>
<path d="M43.3748 26.1026C43.8493 26.1026 44.2339 25.7179 44.2339 25.2434V23.9901C44.2339 23.5156 43.8493 23.1309 43.3748 23.1309C42.9003 23.1309 42.5156 23.5156 42.5156 23.9901V25.2434C42.5156 25.718 42.9003 26.1026 43.3748 26.1026Z" fill="white"/>
<path d="M46.513 21.2765H45.2596C44.7851 21.2765 44.4004 21.6612 44.4004 22.1356C44.4004 22.6101 44.7851 22.9948 45.2596 22.9948H46.513C46.9874 22.9948 47.3721 22.6101 47.3721 22.1356C47.3721 21.6612 46.9874 21.2765 46.513 21.2765Z" fill="white"/>
<path d="M43.3748 21.1403C43.8493 21.1403 44.2339 20.7556 44.2339 20.2811V19.0277C44.2339 18.5532 43.8493 18.1686 43.3748 18.1686C42.9003 18.1686 42.5156 18.5532 42.5156 19.0277V20.2811C42.5156 20.7556 42.9003 21.1403 43.3748 21.1403Z" fill="white"/>
<path d="M19.9063 22.422H18.9057C18.4312 22.422 18.0465 22.8067 18.0465 23.2811C18.0465 23.7556 18.4312 24.1403 18.9057 24.1403H19.9063C20.3808 24.1403 20.7654 23.7556 20.7654 23.2811C20.7654 22.8067 20.3808 22.422 19.9063 22.422Z" fill="white"/>
<path d="M22.5566 26.0487V25.0481C22.5566 24.5736 22.1719 24.1889 21.6974 24.1889C21.223 24.1889 20.8383 24.5736 20.8383 25.0481V26.0487C20.8383 26.5232 21.223 26.9078 21.6974 26.9078C22.1719 26.9078 22.5566 26.5232 22.5566 26.0487Z" fill="white"/>
<path d="M23.4885 24.1403H24.4891C24.9636 24.1403 25.3483 23.7556 25.3483 23.2811C25.3483 22.8067 24.9636 22.422 24.4891 22.422H23.4885C23.014 22.422 22.6294 22.8067 22.6294 23.2811C22.6294 23.7556 23.014 24.1403 23.4885 24.1403Z" fill="white"/>
<path d="M21.6974 22.3734C22.1719 22.3734 22.5566 21.9887 22.5566 21.5142V20.5136C22.5566 20.0391 22.1719 19.6545 21.6974 19.6545C21.223 19.6545 20.8383 20.0391 20.8383 20.5136V21.5142C20.8383 21.9887 21.223 22.3734 21.6974 22.3734Z" fill="white"/>
</g>
<defs>
<clipPath id="clip0_482_4098">
<rect width="29.3256" height="29.3256" fill="white" transform="translate(18.0465 18.1686)"/>
</clipPath>
</defs>
</svg>
