<svg width="68" height="68" viewBox="0 0 68 68" fill="none" xmlns="http://www.w3.org/2000/svg">
<circle cx="33.7209" cy="34.0581" r="33.7209" fill="#9208D3"/>
<g clip-path="url(#clip0_482_4099)">
<path d="M34.1838 24.9837C27.5145 24.9837 22.0885 30.4097 22.0885 37.0791C22.0885 43.7485 27.5145 49.1744 34.1838 49.1744C40.8532 49.1744 46.2792 43.7484 46.2792 37.0791C46.2792 30.4097 40.8532 24.9837 34.1838 24.9837ZM34.1838 47.403C28.4912 47.403 23.8599 42.7716 23.8599 37.0791C23.8599 31.3865 28.4912 26.7552 34.1838 26.7552C39.8764 26.7552 44.5077 31.3865 44.5077 37.0791C44.5077 42.7716 39.8765 47.403 34.1838 47.403Z" fill="white"/>
<path d="M39.466 39.3283C39.0947 39.0099 38.5355 39.0526 38.2171 39.424C37.2057 40.6031 35.7356 41.2793 34.1838 41.2793C32.6321 41.2793 31.162 40.6031 30.1506 39.4241C29.8321 39.0528 29.273 39.01 28.9017 39.3285C28.5304 39.647 28.4876 40.2062 28.8061 40.5774C30.1544 42.1492 32.1146 43.0508 34.1839 43.0508C36.2532 43.0508 38.2134 42.1492 39.5617 40.5773C39.8801 40.206 39.8373 39.6468 39.466 39.3283Z" fill="white"/>
<path d="M29.2667 35.686C29.7559 35.686 30.1524 35.2894 30.1524 34.8003C30.1524 34.5163 30.3835 34.2852 30.6674 34.2852C30.9514 34.2852 31.1825 34.5163 31.1825 34.8003C31.1825 35.2894 31.579 35.686 32.0682 35.686C32.5573 35.686 32.9539 35.2894 32.9539 34.8003C32.9539 33.5395 31.9282 32.5138 30.6674 32.5138C29.4067 32.5138 28.381 33.5395 28.381 34.8003C28.381 35.2895 28.7775 35.686 29.2667 35.686Z" fill="white"/>
<path d="M37.7002 32.5138C36.4395 32.5138 35.4138 33.5395 35.4138 34.8003C35.4138 35.2894 35.8103 35.686 36.2995 35.686C36.7886 35.686 37.1852 35.2894 37.1852 34.8003C37.1852 34.5163 37.4162 34.2853 37.7002 34.2853C37.9842 34.2853 38.2152 34.5163 38.2152 34.8003C38.2152 35.2894 38.6118 35.686 39.1009 35.686C39.5901 35.686 39.9867 35.2894 39.9867 34.8003C39.9867 33.5395 38.9609 32.5138 37.7002 32.5138Z" fill="white"/>
<path d="M41.481 23.9173H42.7731C43.2623 23.9173 43.6589 23.5207 43.6589 23.0316C43.6589 22.5424 43.2623 22.1459 42.7731 22.1459H41.481C40.9918 22.1459 40.5953 22.5424 40.5953 23.0316C40.5953 23.5207 40.9918 23.9173 41.481 23.9173Z" fill="white"/>
<path d="M44.7163 27.1212C45.2054 27.1212 45.602 26.7247 45.602 26.2355V24.9434C45.602 24.4542 45.2054 24.0576 44.7163 24.0576C44.2271 24.0576 43.8306 24.4542 43.8306 24.9434V26.2355C43.8306 26.7247 44.2271 27.1212 44.7163 27.1212Z" fill="white"/>
<path d="M47.9516 22.1459H46.6594C46.1702 22.1459 45.7737 22.5424 45.7737 23.0316C45.7737 23.5207 46.1702 23.9173 46.6594 23.9173H47.9516C48.4407 23.9173 48.8373 23.5207 48.8373 23.0316C48.8373 22.5424 48.4407 22.1459 47.9516 22.1459Z" fill="white"/>
<path d="M44.7163 22.0054C45.2054 22.0054 45.602 21.6089 45.602 21.1197V19.8276C45.602 19.3384 45.2054 18.9419 44.7163 18.9419C44.2271 18.9419 43.8306 19.3384 43.8306 19.8276V21.1197C43.8306 21.6089 44.2271 22.0054 44.7163 22.0054Z" fill="white"/>
<path d="M20.522 23.3268H19.4904C19.0012 23.3268 18.6047 23.7234 18.6047 24.2125C18.6047 24.7017 19.0012 25.0983 19.4904 25.0983H20.522C21.0111 25.0983 21.4077 24.7017 21.4077 24.2125C21.4077 23.7234 21.0111 23.3268 20.522 23.3268Z" fill="white"/>
<path d="M23.2542 27.0656V26.034C23.2542 25.5449 22.8576 25.1483 22.3684 25.1483C21.8793 25.1483 21.4827 25.5449 21.4827 26.034V27.0656C21.4827 27.5548 21.8793 27.9513 22.3684 27.9513C22.8576 27.9513 23.2542 27.5548 23.2542 27.0656Z" fill="white"/>
<path d="M24.215 25.0983H25.2466C25.7357 25.0983 26.1323 24.7017 26.1323 24.2125C26.1323 23.7234 25.7357 23.3268 25.2466 23.3268H24.215C23.7259 23.3268 23.3293 23.7234 23.3293 24.2125C23.3293 24.7017 23.7259 25.0983 24.215 25.0983Z" fill="white"/>
<path d="M22.3684 23.2767C22.8576 23.2767 23.2542 22.8801 23.2542 22.391V21.3594C23.2542 20.8702 22.8576 20.4737 22.3684 20.4737C21.8793 20.4737 21.4827 20.8702 21.4827 21.3594V22.391C21.4827 22.8801 21.8793 23.2767 22.3684 23.2767Z" fill="white"/>
</g>
<defs>
<clipPath id="clip0_482_4099">
<rect width="30.2326" height="30.2326" fill="white" transform="translate(18.6047 18.9419)"/>
</clipPath>
</defs>
</svg>
