<svg width="91" height="90" viewBox="0 0 91 90" fill="none" xmlns="http://www.w3.org/2000/svg">
<rect width="91" height="90" rx="20" fill="#FFE7FB"/>
<g clip-path="url(#clip0_723_4198)">
<path d="M44.8125 45.5C44.433 45.5 44.125 45.192 44.125 44.8125V37.9375C44.125 37.558 44.433 37.25 44.8125 37.25H46.875C48.3916 37.25 49.625 38.4834 49.625 40C49.625 41.5166 48.3916 42.75 46.875 42.75H45.5V44.8125C45.5 45.192 45.192 45.5 44.8125 45.5ZM45.5 41.375H46.875C47.634 41.375 48.25 40.7576 48.25 40C48.25 39.2424 47.634 38.625 46.875 38.625H45.5V41.375Z" fill="#B50097"/>
<path d="M48.9375 45.5001C48.7615 45.5001 48.5855 45.4327 48.4508 45.2993L45.7008 42.5493C45.4326 42.2812 45.4326 41.8453 45.7008 41.5772C45.9689 41.3091 46.4048 41.3091 46.6729 41.5772L49.4229 44.3272C49.691 44.5953 49.691 45.0312 49.4229 45.2993C49.2895 45.4327 49.1135 45.5001 48.9375 45.5001Z" fill="#B50097"/>
<path d="M38.625 45.5C38.3211 45.5 38.0544 45.3006 37.9664 45.0105L35.9039 38.1355C35.7939 37.7725 36.0001 37.3888 36.3645 37.2788C36.7275 37.1716 37.1111 37.3765 37.2211 37.7395L38.625 42.42L40.0289 37.7408C40.1375 37.3765 40.5239 37.173 40.8841 37.2802C41.2485 37.3902 41.4547 37.7725 41.3447 38.1368L39.2822 45.0118C39.1956 45.3006 38.9289 45.5 38.625 45.5Z" fill="#B50097"/>
<path d="M54.4375 41.375C53.3004 41.375 52.375 40.4496 52.375 39.3125C52.375 38.1754 53.3004 37.25 54.4375 37.25C55.5746 37.25 56.5 38.1754 56.5 39.3125C56.5 40.4496 55.5746 41.375 54.4375 41.375ZM54.4375 38.625C54.0594 38.625 53.75 38.933 53.75 39.3125C53.75 39.692 54.0594 40 54.4375 40C54.8156 40 55.125 39.692 55.125 39.3125C55.125 38.933 54.8156 38.625 54.4375 38.625Z" fill="#B50097"/>
<path d="M58.5625 52.375H49.8587C49.5631 52.375 49.3005 52.1853 49.2056 51.9048L48.602 50.0898C48.5071 49.8161 48.2417 49.625 47.9475 49.625H43.0525C42.7582 49.625 42.4942 49.8161 42.3939 50.1008L41.793 51.9061C41.6995 52.1853 41.4369 52.375 41.1412 52.375H32.4375C30.5414 52.375 29 50.8323 29 48.9375V36.5625C29 34.6678 30.5414 33.125 32.4375 33.125H58.5625C60.4586 33.125 62 34.6678 62 36.5625V48.9375C62 50.8323 60.4586 52.375 58.5625 52.375ZM50.3537 51H58.5625C59.6996 51 60.625 50.0746 60.625 48.9375V36.5625C60.625 35.4254 59.6996 34.5 58.5625 34.5H32.4375C31.3004 34.5 30.375 35.4254 30.375 36.5625V48.9375C30.375 50.0746 31.3004 51 32.4375 51H40.6462L41.0931 49.6553C41.3901 48.811 42.1752 48.25 43.0525 48.25H47.9489C48.8261 48.25 49.6112 48.811 49.9041 49.6456L50.3537 51Z" fill="#B50097"/>
<path d="M57.1875 34.5C56.808 34.5 56.5 34.192 56.5 33.8125V32.4375C56.5 31.3004 55.5746 30.375 54.4375 30.375H36.5625C35.4254 30.375 34.5 31.3004 34.5 32.4375V33.8125C34.5 34.192 34.192 34.5 33.8125 34.5C33.433 34.5 33.125 34.192 33.125 33.8125V32.4375C33.125 30.5428 34.6664 29 36.5625 29H54.4375C56.3336 29 57.875 30.5428 57.875 32.4375V33.8125C57.875 34.192 57.567 34.5 57.1875 34.5Z" fill="#B50097"/>
<path d="M44.125 62C43.9174 62 43.7097 61.9051 43.575 61.725C43.3481 61.4211 43.41 60.9907 43.7139 60.7625L45.731 59.25L43.7125 57.7375C43.4086 57.5092 43.3467 57.0789 43.5736 56.775C43.8032 56.4697 44.2336 56.412 44.5361 56.6375L47.2861 58.7C47.4594 58.8292 47.5611 59.0341 47.5611 59.25C47.5611 59.4658 47.4594 59.6707 47.2861 59.8L44.5361 61.8625C44.4137 61.9546 44.268 62 44.125 62Z" fill="#B50097"/>
<path d="M45.5 59.9375C44.0906 59.9375 42.6537 59.8852 41.2306 59.7848C35.3181 59.3586 29 57.9107 29 55.125C29 54.8348 29.0756 54.5365 29.2241 54.2395C29.3946 53.8985 29.8099 53.7623 30.1481 53.9328C30.4864 54.1033 30.6239 54.5158 30.4547 54.8555C30.4025 54.96 30.375 55.0507 30.375 55.125C30.375 56.1328 33.8551 57.875 41.3282 58.414C42.7294 58.513 44.1209 58.6106 45.5289 58.5625C45.8534 58.5625 46.1655 58.5625 46.4762 58.5501C46.8736 58.5336 47.1761 58.8292 47.1926 59.2087C47.2077 59.5882 46.9121 59.9086 46.534 59.9237C46.193 59.9375 45.8534 59.9375 45.5 59.9375Z" fill="#B50097"/>
<path d="M50.2974 59.7312C49.944 59.7312 49.6429 59.4589 49.614 59.1001C49.5838 58.7219 49.8643 58.3892 50.2424 58.3576C57.3264 57.7787 60.625 56.0861 60.625 55.125C60.625 55.0507 60.5975 54.96 60.5452 54.8555C60.3761 54.5158 60.5136 54.1033 60.8519 53.9328C61.1888 53.761 61.604 53.8985 61.7759 54.2395C61.9244 54.5365 62 54.8348 62 55.125C62 58.5116 53.0873 59.5057 50.3551 59.7298C50.3373 59.7312 50.3166 59.7312 50.2974 59.7312Z" fill="#B50097"/>
</g>
<defs>
<clipPath id="clip0_723_4198">
<rect width="33" height="33" fill="white" transform="translate(29 29)"/>
</clipPath>
</defs>
</svg>
